<?xml version="1.0" encoding="utf-8"?>
<!-- Svg Vector Icons : http://www.onlinewebfonts.com/icon -->
<!DOCTYPE svg PUBLIC "-//W3C//DTD SVG 1.1//EN" "http://www.w3.org/Graphics/SVG/1.1/DTD/svg11.dtd">
<svg version="1.1" xmlns="http://www.w3.org/2000/svg" xmlns:xlink="http://www.w3.org/1999/xlink" x="0px" y="0px" viewBox="0 0 256 256" enable-background="new 0 0 256 256" xml:space="preserve">
<metadata> Svg Vector Icons : http://www.onlinewebfonts.com/icon </metadata>
<g><g><g><path fill="#000000" d="M121.2,66.5v13.1h6.9h6.9v-7.8c0-4.3,0.1-10.2,0.3-13.1l0.3-5.3h-7.2h-7.3V66.5z"/><path fill="#000000" d="M72,63.1c-3.5,1.2-6.5,2.3-6.5,2.3C65.4,65.6,73.8,90,74,90.4c0.2,0.2,12.3-4,12.8-4.4c0.4-0.3-7.3-23.9-8-24.7C78.6,61.1,75.6,61.9,72,63.1z"/><path fill="#000000" d="M173.5,74.1c-3.6,6.4-6.3,11.8-6.1,11.8c0.2,0.1,3,1.6,6.1,3.3c3.1,1.8,5.8,3,6,2.9c0.9-0.9,12.6-22.6,12.3-22.9c-0.2-0.2-3-1.8-6.1-3.6l-5.8-3.2L173.5,74.1z"/><path fill="#000000" d="M119.2,90.3c-23.4,2-41.2,8-58.4,19.5c-12.1,8.1-24.6,21.1-31.6,32.7l-2.4,3.9l1.3,2.3c5.5,9.5,15.8,21.1,25.6,28.9c16.9,13.4,36.3,21.5,58.3,24.2c7.5,0.9,22.3,1,29.6,0.2c34.2-3.8,65.4-22.7,84.2-51.1l2.9-4.4l-1.6-2.9c-2.1-3.9-8.2-12.1-12.4-16.7c-18-19.7-40.7-31.6-67.8-35.6C140.5,90.5,124.5,89.8,119.2,90.3z M139.9,102.3c15.6,4.5,28,17.1,32.2,32.6c1.6,6,1.6,17.3,0,22.9c-2.4,8.4-5.8,14.5-11.4,20.2c-5.8,6.1-13.4,10.6-21.5,12.7c-5.7,1.6-17.1,1.6-22.7,0.1c-8.3-2.3-15.8-6.8-21.8-13c-6.3-6.7-10.6-15.3-12.1-24.2c-0.8-5-0.4-13.8,0.9-18.9c4.3-16.3,18-29.3,34.9-33C123.5,100.5,134.9,100.8,139.9,102.3z"/><path fill="#000000" d="M122.8,122.8c-4.2,0.9-7.8,2.9-11.2,6.1c-5.2,4.9-7.4,10-7.4,17.1c0,9.9,4.8,17.6,13.8,21.9c3.8,1.8,3.9,1.8,10,1.8s6.2,0,10-1.8c7.8-3.7,12.4-10,13.7-18.6c0.5-3.1,0.1-9.2-0.8-10.6c-0.1-0.2-1.2,0.1-2.3,0.7c-1.3,0.6-3.4,1.1-5.6,1.3l-3.5,0.2l0,2.3c-0.1,6.2-4.5,10.6-10.8,10.6c-7.2,0-11.9-6.1-10.4-13.7c0.6-3.5,5.8-7.7,9.3-7.8c1.2,0,1.3-0.1,1-1.1c-0.2-0.6-0.4-2.9-0.3-5.2c0-4,0-4-1.2-4C126.4,122.1,124.5,122.4,122.8,122.8z"/><path fill="#000000" d="M14.8,98.6l-4.8,5l9.5,9c5.2,4.9,9.6,8.9,9.8,8.9c0.5,0,9.4-9.2,9.4-9.7c0-0.4-14.2-14.2-17.8-17.2l-1.2-1L14.8,98.6z"/><path fill="#000000" d="M226.5,102.9l-9.5,8.9l4.7,5.1c2.6,2.8,4.9,5,5.1,5c0.2-0.1,4.6-4.1,9.7-9l9.4-8.9l-4.5-4.9c-2.5-2.7-4.8-5-5-5.1C236.2,94,231.7,98,226.5,102.9z"/></g></g></g>
</svg>